<svg width="22" height="20" viewBox="0 0 22 20" fill="none" xmlns="http://www.w3.org/2000/svg">
<path d="M11 0C16.8 0 21.501 3.664 21.501 8.185C21.501 12.705 16.8 16.369 11.001 16.369C10.4236 16.3693 9.8467 16.3325 9.27398 16.259L4.86598 19.142C4.36498 19.407 4.18798 19.378 4.39398 18.729L5.28598 15.051C2.40598 13.591 0.500977 11.061 0.500977 8.185C0.500977 3.665 5.20098 0 11.001 0M16.909 8.06L18.379 6.636C18.4638 6.54791 18.5111 6.43033 18.511 6.30804C18.5108 6.18575 18.4632 6.0683 18.3782 5.98041C18.2931 5.89252 18.1773 5.84107 18.0551 5.83689C17.9329 5.83271 17.8138 5.87613 17.723 5.958L15.795 7.824V6.282C15.795 6.15682 15.7452 6.03676 15.6567 5.94825C15.5682 5.85973 15.4482 5.81 15.323 5.81C15.1978 5.81 15.0777 5.85973 14.9892 5.94825C14.9007 6.03676 14.851 6.15682 14.851 6.282V8.839C14.8333 8.91195 14.8333 8.98805 14.851 9.061V10.5C14.851 10.6252 14.9007 10.7452 14.9892 10.8338C15.0777 10.9223 15.1978 10.972 15.323 10.972C15.4482 10.972 15.5682 10.9223 15.6567 10.8338C15.7452 10.7452 15.795 10.6252 15.795 10.5V9.137L16.222 8.724L17.65 10.757C17.6856 10.8078 17.7309 10.851 17.7833 10.8842C17.8357 10.9175 17.8941 10.9401 17.9552 10.9508C18.0163 10.9615 18.0789 10.96 18.1394 10.9465C18.1999 10.933 18.2572 10.9077 18.308 10.872C18.3587 10.8363 18.402 10.791 18.4352 10.7387C18.4685 10.6863 18.4911 10.6279 18.5018 10.5668C18.5124 10.5057 18.511 10.4431 18.4975 10.3826C18.4839 10.322 18.4586 10.2648 18.423 10.214L16.909 8.06ZM13.951 9.984H12.491V6.297C12.4854 6.17571 12.4333 6.06123 12.3455 5.97737C12.2576 5.89351 12.1409 5.84672 12.0195 5.84672C11.8981 5.84672 11.7813 5.89351 11.6935 5.97737C11.6057 6.06123 11.5536 6.17571 11.548 6.297V10.456C11.548 10.716 11.758 10.928 12.019 10.928H13.951C14.0762 10.928 14.1962 10.8783 14.2847 10.7898C14.3732 10.7012 14.423 10.5812 14.423 10.456C14.423 10.3308 14.3732 10.2108 14.2847 10.1222C14.1962 10.0337 14.0762 9.984 13.951 9.984ZM8.09398 8.893L8.78998 7.185L9.42798 8.892L8.09398 8.893ZM10.617 9.38L10.619 9.364C10.6187 9.24509 10.5733 9.13071 10.492 9.044L9.44598 6.244C9.40213 6.11057 9.31861 5.99369 9.20657 5.90899C9.09453 5.8243 8.95931 5.7758 8.81898 5.77C8.67762 5.76938 8.53942 5.81182 8.42277 5.89167C8.30612 5.97152 8.21655 6.08499 8.16598 6.217L6.50398 10.292C6.45664 10.4079 6.45727 10.5379 6.50575 10.6533C6.55423 10.7687 6.64658 10.8602 6.76248 10.9075C6.87838 10.9548 7.00834 10.9542 7.12376 10.9057C7.23919 10.8572 7.33064 10.7649 7.37798 10.649L7.70998 9.836H9.77998L10.078 10.636C10.0983 10.6958 10.1304 10.7509 10.1724 10.7981C10.2145 10.8452 10.2655 10.8835 10.3226 10.9105C10.3796 10.9376 10.4416 10.9529 10.5047 10.9557C10.5678 10.9584 10.6308 10.9484 10.6899 10.9263C10.7491 10.9042 10.8032 10.8704 10.8491 10.8271C10.895 10.7837 10.9317 10.7315 10.9571 10.6737C10.9825 10.6158 10.996 10.5535 10.9968 10.4903C10.9977 10.4272 10.9858 10.3645 10.962 10.306L10.617 9.38ZM7.29398 6.302C7.29398 6.17699 7.24439 6.05709 7.15608 5.9686C7.06778 5.88011 6.94799 5.83026 6.82298 5.83H3.57798C3.45279 5.83 3.33274 5.87973 3.24422 5.96825C3.1557 6.05676 3.10598 6.17682 3.10598 6.302C3.10598 6.42718 3.1557 6.54724 3.24422 6.63575C3.33274 6.72427 3.45279 6.774 3.57798 6.774H4.73798V10.51C4.73798 10.6352 4.7877 10.7552 4.87622 10.8438C4.96474 10.9323 5.08479 10.982 5.20998 10.982C5.33516 10.982 5.45521 10.9323 5.54373 10.8438C5.63225 10.7552 5.68198 10.6352 5.68198 10.51V6.774H6.82198C6.94716 6.774 7.06721 6.72427 7.15573 6.63575C7.24425 6.54724 7.29398 6.42718 7.29398 6.302Z" fill="black"/>
</svg>
