<svg width="20" height="20" viewBox="0 0 20 20" fill="none" xmlns="http://www.w3.org/2000/svg">
<g id="icon/ic_google">
<g id="google-color">
<path id="Path" d="M5.57254 10.0002C5.57254 9.51307 5.65345 9.04603 5.79786 8.60796L3.27018 6.67773C2.77755 7.67796 2.5 8.80501 2.5 10.0002C2.5 11.1944 2.77721 12.3208 3.26916 13.3203L5.79547 11.3864C5.65243 10.9503 5.57254 10.485 5.57254 10.0002Z" fill="#FBBC05"/>
<path id="Path_2" d="M10.0105 5.56818C11.0688 5.56818 12.0247 5.94318 12.7758 6.55682L14.9607 4.375C13.6293 3.21591 11.9223 2.5 10.0105 2.5C7.04242 2.5 4.49152 4.19739 3.27002 6.6775L5.7977 8.60773C6.38011 6.83977 8.04031 5.56818 10.0105 5.56818Z" fill="#EB4335"/>
<path id="Path_3" d="M10.0105 14.4321C8.04031 14.4321 6.38011 13.1605 5.7977 11.3926L3.27002 13.3225C4.49152 15.8029 7.04242 17.5003 10.0105 17.5003C11.8424 17.5003 13.5914 16.8498 14.904 15.6311L12.5047 13.7762C11.8277 14.2027 10.9753 14.4321 10.0105 14.4321Z" fill="#34A853"/>
<path id="Path_4" d="M17.18 10.0004C17.18 9.55717 17.1117 9.0799 17.0093 8.63672H10.0107V11.5344H14.0392C13.8378 12.5224 13.2895 13.2819 12.505 13.7763L14.9043 15.6312C16.2832 14.3514 17.18 12.445 17.18 10.0004Z" fill="#4285F4"/>
</g>
</g>
</svg>
